<svg width="137" height="164" viewBox="0 0 137 164" fill="none" xmlns="http://www.w3.org/2000/svg">
<path d="M94.1254 100.614C89.8862 103.527 85.7986 102.292 83.3722 100.176C80.2848 100.05 73.8369 104.771 79.1171 104.986C80.8971 105.059 81.8447 106.335 85.8692 108.299C91.1879 110.895 99.5396 108.227 102.433 105.937C105.998 103.113 113.614 97.7742 120.069 101.011L125.216 104.71C124.533 96.9337 120.855 92.6021 116.781 91.3619C112.161 89.9553 105.863 92.059 103.612 93.5489C97.9156 97.3202 98 97.9516 94.1254 100.614Z" fill="#83B3BA"/>
<path d="M83.3722 100.176L84.3581 99.0454L83.9605 98.6986L83.4333 98.6771L83.3722 100.176ZM94.1254 100.614L93.2759 99.3779L94.1254 100.614ZM103.612 93.5489L102.784 92.2982L102.784 92.2982L103.612 93.5489ZM116.781 91.3619L116.345 92.7968L116.781 91.3619ZM125.216 104.71L124.34 105.928C124.816 106.27 125.448 106.303 125.958 106.013C126.467 105.723 126.761 105.163 126.71 104.579L125.216 104.71ZM120.069 101.011L120.944 99.7927L120.848 99.7232L120.741 99.6699L120.069 101.011ZM102.433 105.937L101.501 104.761L101.501 104.761L102.433 105.937ZM85.8692 108.299L85.2114 109.647L85.8692 108.299ZM83.3722 100.176L82.3863 101.306C85.2207 103.778 90.0614 105.227 94.9749 101.85L94.1254 100.614L93.2759 99.3779C89.711 101.828 86.3766 100.806 84.3581 99.0454L83.3722 100.176ZM94.1254 100.614L94.9749 101.85C96.9741 100.477 97.9725 99.6102 99.1357 98.658C100.274 97.7264 101.636 96.656 104.44 94.7997L103.612 93.5489L102.784 92.2982C99.8916 94.2131 98.4479 95.3441 97.2354 96.3366C96.048 97.3086 95.1513 98.0892 93.2759 99.3779L94.1254 100.614ZM103.612 93.5489L104.44 94.7997C105.37 94.1841 107.321 93.3431 109.631 92.834C111.941 92.325 114.382 92.1992 116.345 92.7968L116.781 91.3619L117.218 89.9269C114.561 89.1179 111.543 89.3407 108.985 89.9044C106.428 90.468 104.105 91.4238 102.784 92.2982L103.612 93.5489ZM116.781 91.3619L116.345 92.7968C119.658 93.8055 123.074 97.4689 123.721 104.841L125.216 104.71L126.71 104.579C125.992 96.3985 122.053 91.3986 117.218 89.9269L116.781 91.3619ZM125.216 104.71L126.091 103.492L120.944 99.7927L120.069 101.011L119.194 102.229L124.34 105.928L125.216 104.71ZM120.069 101.011L120.741 99.6699C116.965 97.7763 112.952 98.4501 109.603 99.8115C106.245 101.176 103.316 103.324 101.501 104.761L102.433 105.937L103.364 107.113C105.115 105.726 107.777 103.792 110.732 102.591C113.696 101.386 116.718 101.009 119.397 102.352L120.069 101.011ZM102.433 105.937L101.501 104.761C100.298 105.714 97.731 106.881 94.7637 107.48C91.7944 108.079 88.7605 108.041 86.5271 106.951L85.8692 108.299L85.2114 109.647C88.2965 111.153 92.0978 111.079 95.3573 110.421C98.6188 109.762 101.674 108.45 103.364 107.113L102.433 105.937ZM85.8692 108.299L86.5271 106.951C84.5874 106.004 83.4191 105.241 82.4194 104.645C81.432 104.056 80.4711 103.54 79.1782 103.487L79.1171 104.986L79.056 106.485C79.5431 106.505 79.9459 106.663 80.8835 107.222C81.8087 107.773 83.1265 108.63 85.2114 109.647L85.8692 108.299ZM79.1171 104.986L79.1782 103.487C78.606 103.464 78.3537 103.382 78.2872 103.351C78.2557 103.337 78.5213 103.466 78.5936 103.845C78.6491 104.136 78.5229 104.259 78.6086 104.119C78.6792 104.004 78.8337 103.814 79.1044 103.573C79.6404 103.096 80.4352 102.589 81.2754 102.213C82.1445 101.824 82.877 101.657 83.3111 101.675L83.3722 100.176L83.4333 98.6771C82.3237 98.6319 81.0924 99.0079 80.0491 99.4751C78.977 99.9553 77.911 100.619 77.1092 101.333C76.711 101.688 76.3273 102.099 76.0493 102.554C75.7865 102.983 75.5015 103.645 75.6468 104.407C75.8089 105.257 76.413 105.79 77.0275 106.074C77.607 106.342 78.3083 106.455 79.056 106.485L79.1171 104.986Z" fill="#3F3D3D"/>
<path fill-rule="evenodd" clip-rule="evenodd" d="M62.9536 108.537C64.1937 108.638 65.1167 109.726 65.015 110.966C64.6013 116.014 68.5691 129.264 91.9823 134.02C93.2018 134.267 93.9895 135.457 93.7418 136.676C93.4941 137.896 92.3048 138.683 91.0853 138.436C65.9469 133.329 59.884 118.405 60.5239 110.598C60.6256 109.358 61.7134 108.435 62.9536 108.537Z" fill="#FAC96A" stroke="#3F3D3D" stroke-width="3" stroke-linecap="round"/>
<path fill-rule="evenodd" clip-rule="evenodd" d="M87.7565 132.388C88.293 134.478 88.867 137.246 85.8853 137.45C84.7046 138.523 85.0971 140.616 86.9937 141.059L86.945 141.206L87.2308 142.921C78.3769 140.798 78.7798 150.392 83.0859 152.707C84.6295 153.537 89.306 154.827 92.5313 152.707C97.4152 148.238 98.4578 139.059 98.4578 137.899C98.4578 137.797 98.4589 137.69 98.46 137.581C98.4734 136.286 98.4918 134.501 96.7843 133.149C95.5628 132.182 92.985 131.477 91.1226 131.62C90.0139 129.526 87.7565 131.052 87.7565 132.388Z" fill="#D9D9D9"/>
<path d="M85.8853 137.45L85.7832 135.953L85.2624 135.989L84.8762 136.34L85.8853 137.45ZM87.7565 132.388H86.2565V132.578L86.3036 132.761L87.7565 132.388ZM86.9937 141.059L88.4177 141.53L88.9338 139.972L87.335 139.598L86.9937 141.059ZM86.945 141.206L85.521 140.734L85.4044 141.087L85.4654 141.452L86.945 141.206ZM87.2308 142.921L86.881 144.379L89.0825 144.907L88.7103 142.674L87.2308 142.921ZM83.0859 152.707L83.7963 151.386H83.7963L83.0859 152.707ZM92.5313 152.707L93.355 153.961L93.4553 153.895L93.5439 153.814L92.5313 152.707ZM98.46 137.581L96.9601 137.565V137.565L98.46 137.581ZM96.7843 133.149L95.8532 134.325L95.8532 134.325L96.7843 133.149ZM91.1226 131.62L89.7969 132.322L90.2569 133.19L91.237 133.115L91.1226 131.62ZM85.8853 137.45L85.9873 138.946C86.9632 138.88 87.8395 138.588 88.5134 137.983C89.1906 137.374 89.5 136.596 89.6201 135.871C89.8424 134.529 89.4638 133.006 89.2094 132.015L87.7565 132.388L86.3036 132.761C86.5857 133.86 86.7624 134.766 86.6604 135.381C86.6183 135.635 86.5456 135.718 86.5086 135.751C86.4683 135.787 86.2982 135.918 85.7832 135.953L85.8853 137.45ZM86.9937 141.059L87.335 139.598C86.9196 139.501 86.7802 139.276 86.7361 139.109C86.6827 138.906 86.7408 138.699 86.8944 138.559L85.8853 137.45L84.8762 136.34C82.7911 138.236 83.5925 141.804 86.6525 142.519L86.9937 141.059ZM86.9937 141.059L85.5698 140.587L85.521 140.734L86.945 141.206L88.3689 141.677L88.4177 141.53L86.9937 141.059ZM86.945 141.206L85.4654 141.452L85.7512 143.167L87.2308 142.921L88.7103 142.674L88.4246 140.959L86.945 141.206ZM87.2308 142.921L87.5805 141.462C85.1363 140.876 83.0839 141.04 81.5106 141.919C79.915 142.811 79.0519 144.304 78.7506 145.865C78.4537 147.403 78.6838 149.055 79.2907 150.488C79.8967 151.918 80.9327 153.252 82.3755 154.028L83.0859 152.707L83.7963 151.386C83.0861 151.004 82.4569 150.271 82.053 149.317C81.65 148.366 81.5253 147.319 81.6962 146.434C81.8626 145.572 82.2897 144.92 82.9741 144.538C83.6808 144.143 84.8983 143.904 86.881 144.379L87.2308 142.921ZM83.0859 152.707L82.3755 154.028C83.343 154.548 85.0967 155.129 87.0416 155.307C88.988 155.485 91.3504 155.278 93.355 153.961L92.5313 152.707L91.7075 151.454C90.4869 152.256 88.8984 152.464 87.3144 152.319C85.7288 152.175 84.3724 151.696 83.7963 151.386L83.0859 152.707ZM92.5313 152.707L93.5439 153.814C96.2898 151.301 97.8687 147.571 98.7664 144.481C99.6673 141.38 99.9578 138.652 99.9578 137.899H98.4578H96.9578C96.9578 138.306 96.727 140.748 95.8856 143.644C95.041 146.55 93.6567 149.644 91.5186 151.601L92.5313 152.707ZM98.4578 137.899H99.9578C99.9578 137.806 99.9588 137.708 99.96 137.596L98.46 137.581L96.9601 137.565C96.959 137.673 96.9578 137.788 96.9578 137.899H98.4578ZM98.46 137.581L99.96 137.596C99.9731 136.325 100.047 133.818 97.7154 131.973L96.7843 133.149L95.8532 134.325C96.9367 135.183 96.9737 136.248 96.9601 137.565L98.46 137.581ZM96.7843 133.149L97.7154 131.973C96.8836 131.314 95.7185 130.827 94.5862 130.521C93.4376 130.209 92.1519 130.037 91.0082 130.124L91.1226 131.62L91.237 133.115C91.9557 133.06 92.8901 133.169 93.8014 133.416C94.729 133.667 95.4635 134.016 95.8532 134.325L96.7843 133.149ZM87.7565 132.388H89.2565C89.2565 132.466 89.2327 132.432 89.3164 132.323C89.3944 132.222 89.5013 132.143 89.5904 132.107C89.6712 132.074 89.6721 132.098 89.6269 132.082C89.5701 132.062 89.6571 132.058 89.7969 132.322L91.1226 131.62L92.4482 130.918C92.0336 130.135 91.4228 129.536 90.6309 129.255C89.8506 128.978 89.0793 129.075 88.4572 129.329C87.8433 129.579 87.3166 130.002 86.9367 130.497C86.5625 130.984 86.2565 131.642 86.2565 132.388H87.7565Z" fill="#3F3D3D"/>
<path d="M85.7879 140.402C87.3247 141.672 89.3961 139.601 89.8304 138.732" stroke="#3F3D3D" stroke-width="3" stroke-linecap="round"/>
<path d="M87.3676 142.927C87.5455 142.959 88.5042 143.618 89.125 144.355" stroke="#3F3D3D" stroke-width="3" stroke-linecap="round"/>
<path d="M89.9454 134.894C89.7444 135.697 90.2331 136.512 91.0368 136.713C91.8405 136.914 92.6549 136.425 92.8558 135.621L91.4006 135.257L89.9454 134.894ZM91.0999 131.616L89.9174 132.539C89.8019 132.391 89.8245 132.337 89.8858 132.578C89.9314 132.757 89.9751 133.008 90.0036 133.302C90.0631 133.915 90.0382 134.522 89.9454 134.894L91.4006 135.257L92.8558 135.621C93.0636 134.79 93.0665 133.805 92.9896 133.012C92.9499 132.603 92.8844 132.197 92.7932 131.839C92.7177 131.542 92.576 131.069 92.2824 130.693L91.0999 131.616Z" fill="#3F3D3D"/>
<path fill-rule="evenodd" clip-rule="evenodd" d="M81.6027 108.726C82.5174 109.57 82.5751 110.995 81.7316 111.91C78.8828 114.999 71.4861 127.066 67.2371 148.857C66.999 150.079 65.8158 150.876 64.5945 150.638C63.3731 150.399 62.5761 149.216 62.8142 147.995C67.1598 125.708 74.8157 112.762 78.4189 108.855C79.2625 107.94 80.6879 107.882 81.6027 108.726Z" fill="#FAC96A" stroke="#3F3D3D" stroke-width="3" stroke-linecap="round"/>
<path fill-rule="evenodd" clip-rule="evenodd" d="M70.4529 148.988C71.5363 152.281 71.0037 158.486 69.0852 158.847C66.5961 160.056 47.4804 161.467 46.6136 156.863C44.3422 144.799 54.8933 144.93 59.0782 149.203L60.4097 147.742C59.0127 145.667 60.953 143.638 62.8852 144.431C63.7656 146.74 67.7474 146.019 68.7023 145.169C71.2318 144.693 72.3004 147.623 70.4529 148.988Z" fill="#D9D9D9"/>
<path d="M70.4529 148.988L69.5617 147.782L68.689 148.426L69.0281 149.457L70.4529 148.988ZM69.0852 158.847L68.8077 157.373L68.6103 157.41L68.4296 157.498L69.0852 158.847ZM46.6136 156.863L48.0877 156.586L46.6136 156.863ZM59.0782 149.203L58.0066 150.252L59.1174 151.387L60.1868 150.213L59.0782 149.203ZM60.4097 147.742L61.5183 148.752L62.3119 147.882L61.654 146.904L60.4097 147.742ZM62.8852 144.431L64.2868 143.896L64.0554 143.289L63.4543 143.043L62.8852 144.431ZM68.7023 145.169L68.4248 143.695L68.0159 143.772L67.7051 144.048L68.7023 145.169ZM70.4529 148.988L69.0281 149.457C69.4828 150.839 69.625 152.982 69.4051 154.841C69.2959 155.764 69.1086 156.514 68.889 157.01C68.6284 157.599 68.5159 157.428 68.8077 157.373L69.0852 158.847L69.3628 160.321C70.6138 160.085 71.2873 159.003 71.6322 158.224C72.0182 157.352 72.256 156.278 72.3844 155.193C72.6396 153.036 72.5064 150.43 71.8778 148.519L70.4529 148.988ZM69.0852 158.847L68.4296 157.498C68.315 157.553 67.9203 157.679 67.1597 157.824C66.4484 157.96 65.5366 158.091 64.4864 158.203C62.3865 158.428 59.7969 158.57 57.2617 158.535C54.7084 158.5 52.2955 158.286 50.5099 157.832C49.6126 157.604 48.9631 157.337 48.5475 157.065C48.1367 156.796 48.0941 156.62 48.0877 156.586L46.6136 156.863L45.1395 157.141C45.3498 158.258 46.0942 159.045 46.9044 159.575C47.7098 160.102 48.7154 160.471 49.771 160.739C51.8911 161.278 54.5752 161.499 57.2204 161.535C59.8836 161.572 62.5938 161.423 64.8053 161.186C65.9107 161.068 66.9074 160.926 67.7214 160.771C68.486 160.625 69.2332 160.443 69.7409 160.196L69.0852 158.847ZM46.6136 156.863L48.0877 156.586C47.5556 153.76 47.8133 151.844 48.38 150.597C48.9295 149.388 49.8239 148.682 50.8912 148.332C53.1625 147.589 56.2648 148.474 58.0066 150.252L59.0782 149.203L60.1498 148.153C57.7067 145.659 53.4409 144.342 49.9584 145.481C48.1487 146.073 46.5696 147.329 45.6489 149.355C44.7453 151.343 44.5359 153.935 45.1395 157.141L46.6136 156.863ZM59.0782 149.203L60.1868 150.213L61.5183 148.752L60.4097 147.742L59.301 146.731L57.9695 148.192L59.0782 149.203ZM60.4097 147.742L61.654 146.904C61.4618 146.619 61.4305 146.409 61.4346 146.288C61.4388 146.161 61.4829 146.054 61.5549 145.967C61.699 145.793 61.9729 145.678 62.3162 145.818L62.8852 144.431L63.4543 143.043C61.8654 142.391 60.2029 142.894 59.2431 144.055C58.2424 145.265 58.1181 147.024 59.1654 148.58L60.4097 147.742ZM62.8852 144.431L61.4836 144.965C62.2666 147.019 64.3478 147.482 65.7632 147.484C66.5276 147.486 67.2837 147.365 67.9318 147.178C68.5372 147.002 69.2156 146.72 69.6996 146.289L68.7023 145.169L67.7051 144.048C67.7116 144.043 67.5342 144.169 67.0969 144.296C66.7023 144.41 66.2289 144.485 65.7684 144.484C64.7341 144.483 64.3842 144.152 64.2868 143.896L62.8852 144.431ZM68.7023 145.169L68.9799 146.643C69.3075 146.581 69.4959 146.642 69.5936 146.695C69.6999 146.752 69.7839 146.844 69.8349 146.966C69.9346 147.205 69.9021 147.53 69.5617 147.782L70.4529 148.988L71.3442 150.195C72.8512 149.081 73.2082 147.259 72.6031 145.81C71.9757 144.308 70.3802 143.327 68.4248 143.695L68.7023 145.169Z" fill="#3F3D3D"/>
<path d="M66.3942 149.506C67.1064 149.651 69.2182 149.448 70.3733 149.036" stroke="#3F3D3D" stroke-width="3" stroke-linecap="round"/>
<path d="M58.7321 148.865C59.086 149.202 59.8009 150.068 59.8296 150.837" stroke="#3F3D3D" stroke-width="3" stroke-linecap="round"/>
<path d="M60.1658 147.338C60.6699 148.165 62.024 148.935 62.7813 149.038" stroke="#3F3D3D" stroke-width="3" stroke-linecap="round"/>
<path fill-rule="evenodd" clip-rule="evenodd" d="M19.7448 62.7583C20.9216 62.354 22.2034 62.9803 22.6076 64.1571C23.6284 67.1287 27.2494 73.3555 32.9305 76.3784C36.3587 78.2026 40.3316 78.5127 43.9731 78.1821C47.5965 77.8533 50.6881 76.9101 52.2412 76.4186C53.4275 76.0432 54.6936 76.7006 55.0691 77.8869C55.4445 79.0733 54.7871 80.3394 53.6008 80.7148C51.9746 81.2294 48.5051 82.2955 44.3804 82.6699C40.2739 83.0426 35.3119 82.7499 30.8137 80.3564C23.8124 76.631 19.6037 69.2825 18.3459 65.6211C17.9417 64.4443 18.568 63.1625 19.7448 62.7583Z" fill="#FAC96A" stroke="#3F3D3D" stroke-width="3" stroke-linecap="round"/>
<path d="M28.2107 67.9686C28.7809 67.0699 28.055 65.5122 27.283 65.4889C31.7391 61.4839 28.5128 54.3982 24.7592 55.4846C23.8508 50.1879 18.4341 52.8259 19.5218 56.731C17.6167 51.7616 13.3967 54.9043 13.6745 57.2334C8.58496 56.1476 9.79097 62.7059 12.308 64.2688C12.6249 66.1572 13.9096 68.5295 15.8166 68.9176C13.887 74.4745 25.9406 71.5462 28.2107 67.9686Z" fill="white" stroke="#3F3D3D" stroke-width="3" stroke-linecap="round" stroke-linejoin="round"/>
<path d="M11.9341 63.9819C13.4105 65.4733 16.8703 66.0572 13.7642 57.595" stroke="#3F3D3D" stroke-width="3" stroke-linecap="round"/>
<path d="M20.6259 62.3976C20.3328 64.4899 16.5492 66.3949 13.6851 57.3449M25.3138 55.4022C15.9437 56.3669 17.8219 65.0185 25.9107 59.9334" stroke="#3F3D3D" stroke-width="3" stroke-linecap="round"/>
<path d="M27.2578 65.4944C26.4563 66.2715 25.2631 67.083 23.5227 67.6338" stroke="#3F3D3D" stroke-width="3" stroke-linecap="round"/>
<path d="M15.7684 68.9085C16.59 69.1802 18.1193 69.1289 19.2187 68.9108" stroke="#3F3D3D" stroke-width="3" stroke-linecap="round"/>
<path d="M50.2592 105.163C47.7603 99.8145 52.6953 81.5781 53.0533 74.9695L85.0872 73.8259C87.2029 81.0266 90.0034 95.8522 89.9098 99.3713C89.7927 103.77 86.5094 110.561 78.6397 113.355C74.8516 114.7 69.8539 115.293 62.609 114.262C57.9354 113.598 52.7581 110.512 50.2592 105.163Z" fill="#83B3BA" stroke="#3F3D3D" stroke-width="3"/>
<path fill-rule="evenodd" clip-rule="evenodd" d="M91.4655 88.9815C91.2062 83.7052 88.2898 78.426 84.1217 74.4323C83.1997 73.5489 83.1513 72.1018 84.0135 71.2002C84.8758 70.2986 86.3222 70.2838 87.2441 71.1671C92.0324 75.755 95.6989 82.0995 96.0313 88.863C96.371 95.7729 93.2085 102.695 85.1591 108.19C84.1279 108.894 82.7017 108.615 81.9736 107.568C81.2455 106.52 81.4911 105.1 82.5223 104.396C89.4808 99.6452 91.7177 94.1113 91.4655 88.9815Z" fill="#FAC96A" stroke="#3F3D3D" stroke-width="3" stroke-linecap="round"/>
<path fill-rule="evenodd" clip-rule="evenodd" d="M81.136 101.231C81.5357 100.57 82.7672 100.274 83.5771 100.668C84.632 101.181 87.7178 103.77 87.3177 108.315C87.1324 110.42 86.3001 110.631 85.4257 110.853C85.3467 110.873 85.2673 110.893 85.188 110.915L85.1521 110.829C84.6903 113.632 83.4689 117.126 80.0742 115.598C78.9964 116.129 76.2621 117.325 74.6005 114.596C71.7201 113.875 70.459 109.604 73.1888 107.51C69.7007 104.03 75.3573 99.9248 77.6682 100.089C78.7835 100.097 80.046 100.571 81.2177 101.426L81.136 101.231Z" fill="white"/>
<path d="M83.5771 100.668L82.9215 102.017L83.5771 100.668ZM81.136 101.231L79.8521 100.455L79.4582 101.107L79.7523 101.81L81.136 101.231ZM87.3177 108.315L85.8235 108.183L87.3177 108.315ZM85.4257 110.853L85.7943 112.307L85.7943 112.307L85.4257 110.853ZM85.188 110.915L83.8042 111.494L84.3124 112.708L85.5826 112.362L85.188 110.915ZM85.1521 110.829L86.5358 110.25L84.5207 105.434L83.672 110.585L85.1521 110.829ZM80.0742 115.598L80.6898 114.23L80.0453 113.94L79.4113 114.252L80.0742 115.598ZM74.6005 114.596L75.8816 113.816L75.5617 113.291L74.9649 113.141L74.6005 114.596ZM73.1888 107.51L74.1019 108.7L75.4605 107.657L74.2483 106.448L73.1888 107.51ZM77.6682 100.089L77.5621 101.585L77.6098 101.588L77.6577 101.589L77.6682 100.089ZM81.2177 101.426L80.333 102.638L84.679 105.812L82.6015 100.847L81.2177 101.426ZM83.5771 100.668L84.2327 99.3188C83.4496 98.9383 82.5732 98.9269 81.8614 99.0932C81.1746 99.2537 80.3352 99.6558 79.8521 100.455L81.136 101.231L82.4199 102.007C82.3709 102.088 82.3321 102.102 82.3639 102.083C82.393 102.065 82.454 102.036 82.544 102.015C82.6327 101.994 82.7229 101.987 82.8001 101.993C82.8785 101.999 82.9168 102.015 82.9215 102.017L83.5771 100.668ZM87.3177 108.315L88.8119 108.446C89.0461 105.787 88.2554 103.668 87.241 102.147C86.2541 100.667 85.0224 99.7025 84.2327 99.3188L83.5771 100.668L82.9215 102.017C83.1867 102.146 84.0253 102.732 84.7451 103.812C85.4372 104.849 85.9894 106.298 85.8235 108.183L87.3177 108.315ZM85.4257 110.853L85.7943 112.307C86.1768 112.21 87.019 112.029 87.6955 111.346C88.3901 110.645 88.7054 109.657 88.8119 108.446L87.3177 108.315L85.8235 108.183C85.785 108.621 85.7183 108.89 85.6595 109.049C85.631 109.127 85.6061 109.173 85.5903 109.199C85.5751 109.224 85.5659 109.233 85.5647 109.234C85.5601 109.239 85.549 109.274 85.0571 109.399L85.4257 110.853ZM85.188 110.915L85.5826 112.362C85.6467 112.344 85.7131 112.327 85.7943 112.307L85.4257 110.853L85.0572 109.399C84.9802 109.418 84.8878 109.442 84.7933 109.467L85.188 110.915ZM85.1521 110.829L83.7684 111.408L83.8042 111.494L85.188 110.915L86.5717 110.336L86.5358 110.25L85.1521 110.829ZM80.0742 115.598L79.4585 116.966C80.5346 117.45 81.6034 117.607 82.614 117.343C83.621 117.08 84.3686 116.452 84.9059 115.747C85.9306 114.403 86.395 112.512 86.6321 111.073L85.1521 110.829L83.672 110.585C83.4474 111.948 83.0703 113.206 82.5201 113.928C82.2699 114.256 82.0468 114.39 81.8556 114.44C81.668 114.489 81.3111 114.51 80.6898 114.23L80.0742 115.598ZM74.6005 114.596L73.3193 115.376C74.4536 117.239 76.0791 117.855 77.5917 117.819C78.9696 117.787 80.1764 117.22 80.7371 116.944L80.0742 115.598L79.4113 114.252C78.8942 114.507 78.1949 114.804 77.5208 114.82C76.9814 114.833 76.4089 114.682 75.8816 113.816L74.6005 114.596ZM73.1888 107.51L72.2757 106.32C70.3699 107.782 69.8838 110.013 70.3307 111.912C70.7678 113.769 72.1511 115.529 74.2361 116.051L74.6005 114.596L74.9649 113.141C74.1694 112.942 73.482 112.206 73.2509 111.224C73.0297 110.284 73.2779 109.332 74.1019 108.7L73.1888 107.51ZM77.6682 100.089L77.7743 98.5925C76.7953 98.5231 75.7152 98.8889 74.8112 99.3588C73.8645 99.8507 72.8968 100.567 72.1275 101.442C71.3664 102.308 70.7108 103.432 70.5979 104.729C70.479 106.094 70.9819 107.427 72.1294 108.572L73.1888 107.51L74.2483 106.448C73.6517 105.853 73.5536 105.367 73.5865 104.989C73.6254 104.543 73.8743 103.999 74.3803 103.423C74.8779 102.857 75.5397 102.361 76.1946 102.021C76.892 101.658 77.3856 101.572 77.5621 101.585L77.6682 100.089ZM81.2177 101.426L82.1025 100.215C80.7511 99.228 79.1893 98.5994 77.6787 98.5888L77.6682 100.089L77.6577 101.589C78.3776 101.594 79.341 101.913 80.333 102.638L81.2177 101.426ZM81.136 101.231L79.7523 101.81L79.834 102.005L81.2177 101.426L82.6015 100.847L82.5197 100.652L81.136 101.231Z" fill="#3F3D3D"/>
<path d="M74.5624 114.678C75.4104 114.475 76.7334 114.678 78.0564 113.491" stroke="#3F3D3D" stroke-width="3" stroke-linecap="round"/>
<path d="M79.3597 115.922C80.0607 115.651 80.8798 115.305 81.5448 114.117" stroke="#3F3D3D" stroke-width="3" stroke-linecap="round"/>
<path d="M73.1179 107.621L75.1106 107.581M75.6422 106.437C75.0883 107.125 74.672 107.757 75.9476 108.779" stroke="#3F3D3D" stroke-width="3" stroke-linecap="round"/>
<path d="M81.1435 101.249C82.1046 102.119 83.7243 104.053 84.1287 105.625" stroke="#3F3D3D" stroke-width="3" stroke-linecap="round"/>
<path d="M85.2821 110.709C85.2595 110.087 85.1396 108.667 84.8411 107.961" stroke="#3F3D3D" stroke-width="3" stroke-linecap="round"/>
<path d="M101.41 11.8251C100.002 4.82607 87.5561 15.5588 81.5088 21.8001C78.8416 26.5739 91.7192 35.2271 98.4914 38.9569C100.051 32.8293 102.817 18.8242 101.41 11.8251Z" fill="#83B3BA" stroke="#3F3D3D" stroke-width="3" stroke-linecap="round" stroke-linejoin="round"/>
<path d="M99.1718 14.7993C98.0911 9.42512 88.5342 17.6663 83.8908 22.4586C81.8428 26.1242 91.7308 32.7685 96.9309 35.6325C98.1282 30.9274 100.253 20.1736 99.1718 14.7993Z" fill="#F29A9A" stroke="#3F3D3D" stroke-width="3" stroke-linecap="round" stroke-linejoin="round"/>
<path d="M34.3717 15.0658C34.9803 7.95262 48.5584 17.2122 55.2714 22.7312C58.4603 27.1735 46.6414 37.2246 40.3334 41.6949C38.0926 35.7824 33.7631 22.179 34.3717 15.0658Z" fill="#83B3BA" stroke="#3F3D3D" stroke-width="3" stroke-linecap="round" stroke-linejoin="round"/>
<path d="M36.4493 17.3827C36.9166 11.9209 47.3426 19.0309 52.4971 23.2686C54.9457 26.6796 45.8706 34.3974 41.027 37.8299C39.3064 33.29 35.982 22.8446 36.4493 17.3827Z" fill="#F29A9A" stroke="#3F3D3D" stroke-width="3" stroke-linecap="round" stroke-linejoin="round"/>
<path d="M76.4186 76.8044C91.7747 73.7595 116.741 61.1186 95.922 32.9056C95.6233 32.5008 91.8781 28.2206 91.5129 27.8945C88.6259 25.3169 87.7594 24.8583 83.0318 22.439C73.0939 18.0696 61.3412 19.5471 54.1664 23.0346C49.8482 25.1337 46.4262 28.593 42.8514 33.0264C40.6942 35.7018 38.8461 39.8958 38.1292 42.3721C29.8788 70.873 54.7714 79.7215 76.4186 76.8044Z" fill="#83B3BA" stroke="#3F3D3D" stroke-width="3"/>
<path d="M65.6161 52.5186C67.1615 53.5786 70.0111 54.8599 73.9145 52.0658C73.9231 52.0597 73.9316 52.0536 73.9401 52.0474C73.9651 52.1178 73.9891 52.1877 74.0122 52.2573C76.9698 61.1756 64.281 64.0719 65.6161 52.5186Z" fill="#3F3D3D"/>
<path d="M65.0255 49.6596C66.282 51.1855 65.4622 54.583 63.0397 55.2609M73.7769 49.1642C72.9732 52.0227 74.7311 53.9833 77.3974 54.2261M65.6161 52.5186C67.1649 53.581 70.0235 54.8655 73.9401 52.0474C77.1687 61.1295 64.2706 64.1621 65.6161 52.5186Z" stroke="#3F3D3D" stroke-width="3" stroke-linecap="round" stroke-linejoin="round"/>
<path d="M70.1696 56.5236C68.4896 54.4441 66.9364 55.7068 67.0122 57.046C67.3531 60.3074 73.0343 59.9389 73.2723 56.6916C73.3781 55.2484 71.292 54.273 70.1696 56.5236Z" fill="#F87F7F"/>
<path d="M71.2737 46.7937C70.1206 46.3298 68.4682 46.6149 67.7097 46.9955C66.8649 47.7675 68.0023 48.2793 68.82 48.5539C69.9103 48.92 70.3712 48.5601 70.7875 48.4425C71.5023 48.2023 72.4268 47.2576 71.2737 46.7937Z" fill="#3F3D3D" stroke="#3F3D3D" stroke-width="3"/>
<path d="M83.747 34.976C88.0839 34.7306 92.0213 38.3719 92.3053 43.3847C92.589 48.3976 89.0876 52.4608 84.7507 52.7064C80.4136 52.9519 76.4761 49.3097 76.1924 44.2967C75.9088 39.2839 79.4101 35.2215 83.747 34.976Z" fill="white" stroke="#3F3D3D" stroke-width="3"/>
<mask id="path-40-inside-1_7_161" fill="white">
<path d="M78.0996 39.266C79.0634 37.5859 80.5409 36.379 82.25 35.8757C83.9591 35.3724 85.7803 35.608 87.3659 36.5374C88.9515 37.4668 90.1906 39.025 90.8467 40.9146C91.5028 42.8043 91.5299 44.8931 90.923 46.7824C90.316 48.6717 89.1174 50.2293 87.5559 51.1578C85.9945 52.0864 84.1794 52.321 82.4572 51.8167C80.735 51.3125 79.2262 50.1049 78.2187 48.4242C77.2112 46.7435 76.7756 44.7075 76.9949 42.7047L84.1494 43.8467L78.0996 39.266Z"/>
</mask>
<path d="M78.0996 39.266C79.0634 37.5859 80.5409 36.379 82.25 35.8757C83.9591 35.3724 85.7803 35.608 87.3659 36.5374C88.9515 37.4668 90.1906 39.025 90.8467 40.9146C91.5028 42.8043 91.5299 44.8931 90.923 46.7824C90.316 48.6717 89.1174 50.2293 87.5559 51.1578C85.9945 52.0864 84.1794 52.321 82.4572 51.8167C80.735 51.3125 79.2262 50.1049 78.2187 48.4242C77.2112 46.7435 76.7756 44.7075 76.9949 42.7047L84.1494 43.8467L78.0996 39.266Z" fill="#3F3D3D" stroke="#3F3D3D" stroke-width="6" mask="url(#path-40-inside-1_7_161)"/>
<path d="M75.5159 48.3877C79.0808 49.088 87.608 49.8682 93.1976 47.3868C91.1861 55.3486 79.3436 56.6955 75.5159 48.3877Z" fill="#D9D9D9" stroke="#3F3D3D" stroke-width="3" stroke-linecap="round" stroke-linejoin="round"/>
<path d="M53.0469 36.2281C57.3838 35.9827 61.3212 39.624 61.6052 44.6367C61.8889 49.6496 58.3876 53.7128 54.0506 53.9585C49.7135 54.204 45.7761 50.5618 45.4923 45.5488C45.2087 40.536 48.71 36.4736 53.0469 36.2281Z" fill="white" stroke="#3F3D3D" stroke-width="3"/>
<mask id="path-43-inside-2_7_161" fill="white">
<path d="M47.6105 40.5062C48.5785 38.8258 50.0619 37.6186 51.7778 37.1149C53.4937 36.6112 55.3219 36.8464 56.9134 37.7754C58.505 38.7045 59.7486 40.2625 60.4068 42.152C61.065 44.0415 61.0918 46.1303 60.4821 48.0198C59.8723 49.9093 58.6688 51.4671 57.101 52.396C55.5333 53.325 53.7111 53.5599 51.9823 53.0561C50.2535 52.5522 48.7391 51.3449 47.728 49.6644C46.717 47.9839 46.2801 45.948 46.5008 43.9451L53.6828 45.0856L47.6105 40.5062Z"/>
</mask>
<path d="M47.6105 40.5062C48.5785 38.8258 50.0619 37.6186 51.7778 37.1149C53.4937 36.6112 55.3219 36.8464 56.9134 37.7754C58.505 38.7045 59.7486 40.2625 60.4068 42.152C61.065 44.0415 61.0918 46.1303 60.4821 48.0198C59.8723 49.9093 58.6688 51.4671 57.101 52.396C55.5333 53.325 53.7111 53.5599 51.9823 53.0561C50.2535 52.5522 48.7391 51.3449 47.728 49.6644C46.717 47.9839 46.2801 45.948 46.5008 43.9451L53.6828 45.0856L47.6105 40.5062Z" fill="#3F3D3D" stroke="#3F3D3D" stroke-width="6" mask="url(#path-43-inside-2_7_161)"/>
<path d="M45.9125 50.7416C49.1363 51.3911 56.8466 52.1195 61.8975 49.8367C60.0872 57.178 49.3817 58.408 45.9125 50.7416Z" fill="#D9D9D9" stroke="#3F3D3D" stroke-width="3" stroke-linecap="round" stroke-linejoin="round"/>
</svg>
