<svg width="57" height="92" viewBox="0 0 57 92" fill="none" xmlns="http://www.w3.org/2000/svg">
<path d="M26.8592 86.2675C25.1911 85.8301 22.689 85.3927 20.4648 82.6807C21.0209 86.2675 20.4648 87.0549 20.4648 88.2796C18.6732 87.434 14.9787 84.8153 14.5339 81.106C12.7546 82.9957 12.804 87.7839 13.0511 89.9418" stroke="#3F3D3D" stroke-width="3" stroke-linecap="round" stroke-linejoin="round"/>
<path fill-rule="evenodd" clip-rule="evenodd" d="M29.0056 30.6384C30.2111 29.9561 31.6686 30.4382 32.261 31.7153C34.9464 37.5038 36.2807 42.6196 36.2708 47.3149C36.2607 52.0729 34.8703 56.2044 32.4269 59.96C30.3356 63.1744 29.2673 65.8088 28.7705 68.0484C28.2772 70.2723 28.317 72.242 28.6085 74.1836C28.8322 75.6745 29.1823 77.0536 29.5695 78.5792C29.7124 79.142 29.8603 79.7247 30.0088 80.3404C30.5379 82.5339 31.0222 84.9759 30.9759 87.7348C30.9516 89.1825 29.8432 90.3747 28.5002 90.3976C27.1572 90.4205 26.0882 89.2655 26.1125 87.8178C26.1469 85.7721 25.7928 83.8695 25.2984 81.8198C25.1837 81.3441 25.0575 80.8477 24.9272 80.3349C24.5209 78.7358 24.0741 76.9773 23.806 75.1912C23.437 72.7328 23.3649 70.0446 24.0417 66.9938C24.715 63.9587 26.0989 60.7015 28.4756 57.0483C30.3894 54.1068 31.3991 51.0374 31.4067 47.4808C31.4143 43.8616 30.3836 39.5493 27.8956 34.1861C27.3031 32.9091 27.8001 31.3207 29.0056 30.6384Z" fill="#658E67" stroke="#3F3D3D" stroke-width="3" stroke-linecap="round" stroke-linejoin="round"/>
<path d="M31.4928 85.3941C33.2227 83.9943 36.7936 80.4075 37.2384 77.2581C38.2578 84.6067 38.6285 83.7319 37.2384 87.8436C38.7212 85.884 39.7097 84.8692 40.0186 84.6067C40.2966 85.1608 40.6858 86.5838 40.0186 87.8436" stroke="#3F3D3D" stroke-width="3" stroke-linecap="round" stroke-linejoin="round"/>
<path d="M30.2455 83.0447C31.6557 86.0922 31.3124 85.5707 33.5587 84.4402C33.7614 88.555 29.4734 91.4521 27.7839 90.9417C26.0945 90.4313 24.1582 87.8274 23.3472 85.5308C26.6451 87.1384 26.618 86.3177 26.4735 83.2692C26.5974 82.2804 29.0052 80.3644 30.2455 83.0447Z" fill="#658E67"/>
<path d="M29.1663 27.0805C59.645 4.00229 19.3547 -14.2219 24.6841 24.5683L27.6685 23.8871L29.1663 27.0805Z" fill="#1CA159"/>
<path d="M27.6685 23.8871L29.1663 27.0805C59.645 4.00229 19.3547 -14.2219 24.6841 24.5683L27.6685 23.8871ZM27.6685 23.8871L33.0833 10.5596" stroke="#3F3D3D" stroke-width="3" stroke-linecap="round" stroke-linejoin="round"/>
<path d="M29.8316 27.5185C66.2571 39.1707 58.0416 -4.23318 29.315 22.4114L31.588 24.4594L29.8316 27.5185Z" fill="#1CA159"/>
<path d="M31.588 24.4594L29.8316 27.5185C66.2571 39.1707 58.0416 -4.23318 29.315 22.4114L31.588 24.4594ZM31.588 24.4594L45.6213 21.2274" stroke="#3F3D3D" stroke-width="3" stroke-linecap="round" stroke-linejoin="round"/>
<path d="M24.4628 26.3573C33.7241 63.4194 66.3455 33.5895 28.5382 23.2295L27.9918 26.2378L24.4628 26.3573Z" fill="#1CA159"/>
<path d="M27.9918 26.2378L24.4628 26.3573C33.7241 63.4194 66.3455 33.5895 28.5382 23.2295L27.9918 26.2378ZM27.9918 26.2378L38.1323 36.4507" stroke="#3F3D3D" stroke-width="3" stroke-linecap="round" stroke-linejoin="round"/>
<path d="M24.3926 25.159C-3.91697 50.8454 37.8327 65.4298 29.0802 27.2644L26.168 28.2072L24.3926 25.159Z" fill="#1CA159"/>
<path d="M26.168 28.2072L24.3926 25.159C-3.91697 50.8454 37.8327 65.4298 29.0802 27.2644L26.168 28.2072ZM26.168 28.2072L21.9579 41.9618" stroke="#3F3D3D" stroke-width="3" stroke-linecap="round" stroke-linejoin="round"/>
<path d="M26.7968 22.2577C-10.2944 12.9326 0.656799 55.7298 27.6362 27.3219L25.2379 25.4218L26.7968 22.2577Z" fill="#1CA159"/>
<path d="M25.2379 25.4218L26.7968 22.2577C-10.2944 12.9326 0.656799 55.7298 27.6362 27.3219L25.2379 25.4218ZM25.2379 25.4218L11.4377 29.5348" stroke="#3F3D3D" stroke-width="3" stroke-linecap="round" stroke-linejoin="round"/>
<path d="M29.8798 23.5844C20.5179 -13.4524 -12.0223 16.4657 25.813 26.7232L26.3512 23.7135L29.8798 23.5844Z" fill="#1CA159"/>
<path d="M26.3512 23.7135L29.8798 23.5844C20.5179 -13.4524 -12.0223 16.4657 25.813 26.7232L26.3512 23.7135ZM26.3512 23.7135L16.183 13.5281" stroke="#3F3D3D" stroke-width="3" stroke-linecap="round" stroke-linejoin="round"/>
<path d="M27.3568 18.8764C31.0098 18.8765 33.9681 21.8334 33.9681 25.477C33.9681 29.1205 31.0098 32.0775 27.3568 32.0775C23.7037 32.0775 20.7455 29.1205 20.7455 25.477C20.7455 21.8334 23.7037 18.8764 27.3568 18.8764Z" fill="#FAC96A" stroke="#3F3D3D" stroke-width="3" stroke-linejoin="round"/>
<path d="M25.1487 27.5168C25.295 28.4103 27.6579 29.8516 29.1762 28.0139M28.8521 26.7397C28.8521 26.9222 28.6694 28.2403 30.6187 28.3214" stroke="#3F3D3D" stroke-width="3" stroke-linecap="round" stroke-linejoin="round"/>
</svg>
