<svg width="77" height="74" viewBox="0 0 77 74" fill="none" xmlns="http://www.w3.org/2000/svg">
<g clip-path="url(#clip0_7_229)">
<path d="M59.3542 34.7029C56.0692 38.4445 53.2083 42.5118 50.82 46.8358C53.5766 45.645 56.4311 44.6755 59.3542 43.9375V63.2084H11.2292V10.7917H59.3542V34.7029Z" fill="#F6CCAF"/>
<path d="M59.3542 34.7029C56.0692 38.4445 53.2083 42.5118 50.82 46.8359C53.5766 45.645 56.4311 44.6755 59.3542 43.9375C59.3542 61.05 59.1937 60.125 59.3542 60.125C47.867 60.125 36.8503 55.7395 28.7276 47.9333C20.6049 40.1271 16.0417 29.5397 16.0417 18.5V10.7917H59.3542V34.7029Z" fill="#FFDEC7"/>
<path d="M62.5625 4.625H8.02083V10.7917H62.5625V4.625Z" fill="#7C7D7D"/>
<path d="M62.5625 4.625V7.70833H14.4375C13.5866 7.70833 12.7705 7.38348 12.1689 6.80525C11.5672 6.22701 11.2292 5.44275 11.2292 4.625H62.5625Z" fill="#919191"/>
<path d="M62.5625 63.2083H8.02083V69.375H62.5625V63.2083Z" fill="#7C7D7D"/>
<path d="M62.5625 63.2083V66.2916H14.4375C13.5866 66.2916 12.7705 65.9668 12.1689 65.3886C11.5672 64.8103 11.2292 64.0261 11.2292 63.2083H62.5625Z" fill="#919191"/>
<path d="M68.9792 4.62502C68.9792 11.1 69.0915 11.2696 68.6904 12.0559C68.3872 12.6955 67.8656 13.2164 67.2122 13.5322C66.5587 13.848 65.8126 13.9397 65.0974 13.7922C64.3823 13.6447 63.7411 13.2667 63.2801 12.721C62.819 12.1753 62.5659 11.4946 62.5625 10.7917V4.62502C62.5625 3.80727 62.9005 3.02301 63.5022 2.44477C64.1039 1.86654 64.9199 1.54169 65.7708 1.54169C66.6217 1.54169 67.4378 1.86654 68.0395 2.44477C68.6411 3.02301 68.9792 3.80727 68.9792 4.62502Z" fill="#FFCC66"/>
<path d="M68.9792 4.625C68.9792 11.1 69.0915 11.2696 68.6904 12.0558C68.2023 12.2667 67.6671 12.3569 67.1335 12.3182C66.5999 12.2795 66.0848 12.1131 65.6352 11.8342C65.1856 11.5553 64.8157 11.1728 64.5592 10.7215C64.3027 10.2701 64.1678 9.76428 64.1667 9.25C64.1667 2.775 64.0544 2.60542 64.4554 1.81917C64.9435 1.60831 65.4787 1.51814 66.0123 1.55684C66.5459 1.59555 67.061 1.76191 67.5106 2.04079C67.9602 2.31966 68.3301 2.70218 68.5866 3.15353C68.8431 3.60489 68.978 4.11073 68.9792 4.625Z" fill="#FFDE76"/>
<path d="M8.02083 4.62502C8.02083 11.1 8.13312 11.2696 7.73208 12.0559C7.42884 12.6955 6.90728 13.2164 6.25382 13.5322C5.60036 13.848 4.85424 13.9397 4.13911 13.7922C3.42397 13.6447 2.78276 13.2667 2.32172 12.721C1.86069 12.1753 1.60752 11.4946 1.60417 10.7917V4.62502C1.60417 3.80727 1.94219 3.02301 2.54387 2.44477C3.14554 1.86654 3.9616 1.54169 4.8125 1.54169C5.6634 1.54169 6.47945 1.86654 7.08113 2.44477C7.68281 3.02301 8.02083 3.80727 8.02083 4.62502Z" fill="#FFCC66"/>
<path d="M8.02083 4.625C8.02083 11.1 8.13313 11.2696 7.73208 12.0558C7.244 12.2667 6.70879 12.3569 6.17519 12.3182C5.64158 12.2795 5.12652 12.1131 4.6769 11.8342C4.22728 11.5553 3.85739 11.1728 3.60089 10.7215C3.3444 10.2701 3.20945 9.76428 3.20833 9.25C3.20833 2.775 3.09604 2.60542 3.49708 1.81917C3.98516 1.60831 4.52037 1.51814 5.05398 1.55684C5.58759 1.59555 6.10265 1.76191 6.55227 2.04079C7.00188 2.31966 7.37178 2.70218 7.62827 3.15353C7.88477 3.60489 8.01972 4.11073 8.02083 4.625Z" fill="#FFDE76"/>
<path d="M68.9792 63.2083C68.9792 69.6833 69.0915 69.8529 68.6904 70.6392C68.3872 71.2788 67.8656 71.7997 67.2122 72.1155C66.5587 72.4313 65.8126 72.5231 65.0974 72.3755C64.3823 72.228 63.7411 71.8501 63.2801 71.3043C62.819 70.7586 62.5659 70.0779 62.5625 69.375V63.2083C62.5625 62.3906 62.9005 61.6063 63.5022 61.0281C64.1039 60.4498 64.9199 60.125 65.7708 60.125C66.6217 60.125 67.4378 60.4498 68.0395 61.0281C68.6411 61.6063 68.9792 62.3906 68.9792 63.2083Z" fill="#FFCC66"/>
<path d="M68.9792 63.2083C68.9792 69.6833 69.0915 69.8529 68.6904 70.6391C68.2023 70.85 67.6671 70.9402 67.1335 70.9015C66.5999 70.8628 66.0848 70.6964 65.6352 70.4175C65.1856 70.1387 64.8157 69.7561 64.5592 69.3048C64.3027 68.8534 64.1678 68.3476 64.1667 67.8333C64.1667 61.3583 64.0544 61.1887 64.4554 60.4025C64.9435 60.1916 65.4787 60.1014 66.0123 60.1402C66.5459 60.1789 67.061 60.3452 67.5106 60.6241C67.9602 60.903 68.3301 61.2855 68.5866 61.7369C68.8431 62.1882 68.978 62.694 68.9792 63.2083Z" fill="#FFDE76"/>
<path d="M8.02083 63.2083C8.02083 69.6833 8.13312 69.8529 7.73208 70.6392C7.42884 71.2788 6.90728 71.7997 6.25382 72.1155C5.60036 72.4313 4.85424 72.5231 4.13911 72.3755C3.42397 72.228 2.78276 71.8501 2.32172 71.3043C1.86069 70.7586 1.60752 70.0779 1.60417 69.375V63.2083C1.60417 62.3906 1.94219 61.6063 2.54387 61.0281C3.14554 60.4498 3.9616 60.125 4.8125 60.125C5.6634 60.125 6.47945 60.4498 7.08113 61.0281C7.68281 61.6063 8.02083 62.3906 8.02083 63.2083Z" fill="#FFCC66"/>
<path d="M8.02083 63.2083C8.02083 69.6833 8.13313 69.8529 7.73208 70.6391C7.244 70.85 6.70879 70.9402 6.17519 70.9015C5.64158 70.8628 5.12652 70.6964 4.6769 70.4175C4.22728 70.1387 3.85739 69.7561 3.60089 69.3048C3.3444 68.8534 3.20945 68.3476 3.20833 67.8333C3.20833 61.3583 3.09604 61.1887 3.49708 60.4025C3.98516 60.1916 4.52037 60.1014 5.05398 60.1402C5.58759 60.1789 6.10265 60.3452 6.55227 60.6241C7.00188 60.903 7.37178 61.2855 7.62827 61.7369C7.88477 62.1882 8.01972 62.694 8.02083 63.2083Z" fill="#FFDE76"/>
<path d="M70.5833 30.8333C70.5833 30.8333 73.7917 33.9166 64.1667 38.5416C69.8935 42.6733 55.1994 44.3383 50.82 46.8358C51.3494 45.8646 51.9108 44.9087 52.4242 43.9837C58.4558 34.2866 68.7706 24.6666 73.7917 21.5833C74.907 22.8792 75.4791 24.5285 75.3958 26.2083C75.3958 29.2916 70.5833 30.8333 70.5833 30.8333Z" fill="#DAD7E5"/>
<path d="M68.9792 29.2917C68.9792 29.2917 72.1875 32.375 62.5625 37C67.2306 40.3762 58.3115 42.1029 52.4883 43.9837C57.9289 35.4312 65.0048 27.9457 73.3425 21.9225C73.6589 22.8047 73.8109 23.7337 73.7917 24.6667C73.7917 27.75 68.9792 29.2917 68.9792 29.2917Z" fill="#EDEBF2"/>
<path d="M77 26.2084C77 23.3871 75.1712 18.7929 72.8773 20.3192C68.555 23.3534 64.5618 26.7984 60.9583 30.6021C60.9583 10.2984 60.83 12.3334 61.2471 12.3334C61.632 13.353 62.3777 14.2101 63.3536 14.755C64.3295 15.2998 65.4736 15.4977 66.5859 15.314C67.6983 15.1303 68.708 14.5768 69.4387 13.7501C70.1694 12.9235 70.5746 11.8763 70.5833 10.7917V4.62502C70.5746 3.54039 70.1694 2.49322 69.4387 1.66657C68.708 0.839916 67.6983 0.286369 66.5859 0.102693C65.4736 -0.0809826 64.3295 0.116898 63.3536 0.661744C62.3777 1.20659 61.632 2.06374 61.2471 3.08335H9.33625C8.95128 2.06374 8.20568 1.20659 7.22977 0.661744C6.25386 0.116898 5.10974 -0.0809826 3.99741 0.102693C2.88508 0.286369 1.8753 0.839916 1.1446 1.66657C0.413896 2.49322 0.00875613 3.54039 0 4.62502L0 10.7917C0.00875613 11.8763 0.413896 12.9235 1.1446 13.7501C1.8753 14.5768 2.88508 15.1303 3.99741 15.314C5.10974 15.4977 6.25386 15.2998 7.22977 14.755C8.20568 14.2101 8.95128 13.353 9.33625 12.3334C9.78542 12.3334 9.625 8.52543 9.625 61.6667H9.33625C8.95128 60.6471 8.20568 59.7899 7.22977 59.2451C6.25386 58.7002 5.10974 58.5023 3.99741 58.686C2.88508 58.8697 1.8753 59.4233 1.1446 60.2499C0.413896 61.0766 0.00875613 62.1237 0 63.2084L0 69.375C0.00875613 70.4596 0.413896 71.5068 1.1446 72.3335C1.8753 73.1601 2.88508 73.7137 3.99741 73.8973C5.10974 74.081 6.25386 73.8831 7.22977 73.3383C8.20568 72.7934 8.95128 71.9363 9.33625 70.9167H61.2471C61.632 71.9363 62.3777 72.7934 63.3536 73.3383C64.3295 73.8831 65.4736 74.081 66.5859 73.8973C67.6983 73.7137 68.708 73.1601 69.4387 72.3335C70.1694 71.5068 70.5746 70.4596 70.5833 69.375V63.2084C70.5746 62.1237 70.1694 61.0766 69.4387 60.2499C68.708 59.4233 67.6983 58.8697 66.5859 58.686C65.4736 58.5023 64.3295 58.7002 63.3536 59.2451C62.3777 59.7899 61.632 60.6471 61.2471 61.6667C60.83 61.6667 60.9583 63.5167 60.9583 45.0475C64.4073 43.9067 68.4177 42.0721 66.7173 38.9734C69.6208 37.4317 73.134 34.8263 72.6527 31.6504C74.4173 30.8334 77 29.045 77 26.2084ZM67.375 4.62502V10.7917C67.375 11.2006 67.206 11.5927 66.9052 11.8818C66.6043 12.1709 66.1963 12.3334 65.7708 12.3334C65.3454 12.3334 64.9374 12.1709 64.6365 11.8818C64.3357 11.5927 64.1667 11.2006 64.1667 10.7917V4.62502C64.1667 4.21614 64.3357 3.82401 64.6365 3.53489C64.9374 3.24577 65.3454 3.08335 65.7708 3.08335C66.1963 3.08335 66.6043 3.24577 66.9052 3.53489C67.206 3.82401 67.375 4.21614 67.375 4.62502ZM60.9583 9.25002H9.625V6.16668H60.9583V9.25002ZM3.20833 10.7917V4.62502C3.20833 4.21614 3.37734 3.82401 3.67818 3.53489C3.97902 3.24577 4.38705 3.08335 4.8125 3.08335C5.23795 3.08335 5.64598 3.24577 5.94682 3.53489C6.24766 3.82401 6.41667 4.21614 6.41667 4.62502V10.7917C6.41667 11.2006 6.24766 11.5927 5.94682 11.8818C5.64598 12.1709 5.23795 12.3334 4.8125 12.3334C4.38705 12.3334 3.97902 12.1709 3.67818 11.8818C3.37734 11.5927 3.20833 11.2006 3.20833 10.7917ZM3.20833 69.375V63.2084C3.20833 62.7995 3.37734 62.4073 3.67818 62.1182C3.97902 61.8291 4.38705 61.6667 4.8125 61.6667C5.23795 61.6667 5.64598 61.8291 5.94682 62.1182C6.24766 62.4073 6.41667 62.7995 6.41667 63.2084V69.375C6.41667 69.7839 6.24766 70.176 5.94682 70.4651C5.64598 70.7543 5.23795 70.9167 4.8125 70.9167C4.38705 70.9167 3.97902 70.7543 3.67818 70.4651C3.37734 70.176 3.20833 69.7839 3.20833 69.375ZM9.625 64.75H60.9583V67.8334H9.625V64.75ZM67.375 63.2084V69.375C67.375 69.7839 67.206 70.176 66.9052 70.4651C66.6043 70.7543 66.1963 70.9167 65.7708 70.9167C65.3454 70.9167 64.9374 70.7543 64.6365 70.4651C64.3357 70.176 64.1667 69.7839 64.1667 69.375V63.2084C64.1667 62.7995 64.3357 62.4073 64.6365 62.1182C64.9374 61.8291 65.3454 61.6667 65.7708 61.6667C66.1963 61.6667 66.6043 61.8291 66.9052 62.1182C67.206 62.4073 67.375 62.7995 67.375 63.2084ZM57.75 61.6667H12.8333V12.3334H57.75V34.1479C51.9107 40.7135 47.542 48.3651 44.9167 56.6254C44.8482 56.8593 44.8383 57.1054 44.8876 57.3437C44.937 57.5819 45.0442 57.8056 45.2006 57.9965C45.357 58.1874 45.5581 58.34 45.7875 58.442C46.017 58.544 46.2682 58.5924 46.5208 58.5834C48.7185 58.5834 47.4673 56.4867 52.0071 47.9613C53.8718 47.1899 55.7909 46.5459 57.75 46.0342V61.6667ZM70.07 29.3688C69.8176 29.4507 69.5904 29.5918 69.4089 29.7792C69.2274 29.9667 69.0974 30.1946 69.0305 30.4425C68.9637 30.6903 68.9621 30.9503 69.0259 31.1988C69.0898 31.4474 69.2171 31.6768 69.3962 31.8663C69.4397 31.9583 69.4621 32.0582 69.4621 32.1592C69.4621 32.2602 69.4397 32.3601 69.3962 32.4521C69.2519 33.0688 68.3696 34.7646 63.3806 37.1696C63.1378 37.288 62.9304 37.4638 62.7778 37.6805C62.6252 37.8971 62.5325 38.1476 62.5085 38.4082C62.4844 38.6688 62.5297 38.931 62.6402 39.1701C62.7507 39.4092 62.9227 39.6174 63.14 39.775C63.3726 39.9277 63.5784 40.115 63.7496 40.33C62.8352 41.4554 56.6752 43.0896 54.4294 43.7679C59.5112 36.1357 65.9068 29.3898 73.3425 23.8188C73.6488 24.5806 73.8013 25.3916 73.7917 26.2084C73.7917 27.75 71.0325 29.0604 70.07 29.3688Z" fill="black"/>
<path d="M22.4583 21.5833H19.25V18.5C19.25 18.0911 19.081 17.699 18.7802 17.4099C18.4793 17.1207 18.0713 16.9583 17.6458 16.9583C17.2204 16.9583 16.8124 17.1207 16.5115 17.4099C16.2107 17.699 16.0417 18.0911 16.0417 18.5V23.125C16.0417 23.5339 16.2107 23.926 16.5115 24.2151C16.8124 24.5042 17.2204 24.6666 17.6458 24.6666H22.4583C22.8838 24.6666 23.2918 24.5042 23.5927 24.2151C23.8935 23.926 24.0625 23.5339 24.0625 23.125C24.0625 22.7161 23.8935 22.324 23.5927 22.0349C23.2918 21.7457 22.8838 21.5833 22.4583 21.5833ZM32.0833 23.125V18.5C32.0833 18.0911 31.9143 17.699 31.6135 17.4099C31.3126 17.1207 30.9046 16.9583 30.4792 16.9583C30.0537 16.9583 29.6457 17.1207 29.3448 17.4099C29.044 17.699 28.875 18.0911 28.875 18.5V23.125C28.875 23.5339 29.044 23.926 29.3448 24.2151C29.6457 24.5042 30.0537 24.6666 30.4792 24.6666C30.9046 24.6666 31.3126 24.5042 31.6135 24.2151C31.9143 23.926 32.0833 23.5339 32.0833 23.125ZM48.125 20.0416H52.9375C53.363 20.0416 53.771 19.8792 54.0718 19.5901C54.3727 19.301 54.5417 18.9089 54.5417 18.5C54.5417 18.0911 54.3727 17.699 54.0718 17.4099C53.771 17.1207 53.363 16.9583 52.9375 16.9583H48.125C47.6995 16.9583 47.2915 17.1207 46.9907 17.4099C46.6898 17.699 46.5208 18.0911 46.5208 18.5C46.5208 18.9089 46.6898 19.301 46.9907 19.5901C47.2915 19.8792 47.6995 20.0416 48.125 20.0416ZM52.9375 21.5833H49.7292C49.3037 21.5833 48.8957 21.7457 48.5948 22.0349C48.294 22.324 48.125 22.7161 48.125 23.125C48.125 23.5339 48.294 23.926 48.5948 24.2151C48.8957 24.5042 49.3037 24.6666 49.7292 24.6666H52.9375C53.363 24.6666 53.771 24.5042 54.0718 24.2151C54.3727 23.926 54.5417 23.5339 54.5417 23.125C54.5417 22.7161 54.3727 22.324 54.0718 22.0349C53.771 21.7457 53.363 21.5833 52.9375 21.5833ZM33.6875 29.2916H28.875C28.4495 29.2916 28.0415 29.4541 27.7407 29.7432C27.4398 30.0323 27.2708 30.4244 27.2708 30.8333V35.4583C27.2708 35.8672 27.4398 36.2593 27.7407 36.5484C28.0415 36.8376 28.4495 37 28.875 37C29.3005 37 29.7085 36.8376 30.0093 36.5484C30.3102 36.2593 30.4792 35.8672 30.4792 35.4583V32.375H33.6875C34.113 32.375 34.521 32.2126 34.8218 31.9234C35.1227 31.6343 35.2917 31.2422 35.2917 30.8333C35.2917 30.4244 35.1227 30.0323 34.8218 29.7432C34.521 29.4541 34.113 29.2916 33.6875 29.2916ZM38.5 30.8333V35.4583C38.5 35.8672 38.669 36.2593 38.9698 36.5484C39.2707 36.8376 39.6787 37 40.1042 37C40.5296 37 40.9376 36.8376 41.2385 36.5484C41.5393 36.2593 41.7083 35.8672 41.7083 35.4583V30.8333C41.7083 30.4244 41.5393 30.0323 41.2385 29.7432C40.9376 29.4541 40.5296 29.2916 40.1042 29.2916C39.6787 29.2916 39.2707 29.4541 38.9698 29.7432C38.669 30.0323 38.5 30.4244 38.5 30.8333ZM52.9375 29.2916H49.7292C49.3037 29.2916 48.8957 29.4541 48.5948 29.7432C48.294 30.0323 48.125 30.4244 48.125 30.8333V35.4583C48.125 35.8672 48.294 36.2593 48.5948 36.5484C48.8957 36.8376 49.3037 37 49.7292 37C50.1546 37 50.5626 36.8376 50.8635 36.5484C51.1643 36.2593 51.3333 35.8672 51.3333 35.4583V32.375H52.9375C53.363 32.375 53.771 32.2126 54.0718 31.9234C54.3727 31.6343 54.5417 31.2422 54.5417 30.8333C54.5417 30.4244 54.3727 30.0323 54.0718 29.7432C53.771 29.4541 53.363 29.2916 52.9375 29.2916ZM22.4583 29.2916H17.6458C17.2204 29.2916 16.8124 29.4541 16.5115 29.7432C16.2107 30.0323 16.0417 30.4244 16.0417 30.8333C16.0417 31.2422 16.2107 31.6343 16.5115 31.9234C16.8124 32.2126 17.2204 32.375 17.6458 32.375H22.4583C22.8838 32.375 23.2918 32.2126 23.5927 31.9234C23.8935 31.6343 24.0625 31.2422 24.0625 30.8333C24.0625 30.4244 23.8935 30.0323 23.5927 29.7432C23.2918 29.4541 22.8838 29.2916 22.4583 29.2916ZM17.6458 37H20.8542C21.2796 37 21.6876 36.8376 21.9885 36.5484C22.2893 36.2593 22.4583 35.8672 22.4583 35.4583C22.4583 35.0494 22.2893 34.6573 21.9885 34.3682C21.6876 34.0791 21.2796 33.9166 20.8542 33.9166H17.6458C17.2204 33.9166 16.8124 34.0791 16.5115 34.3682C16.2107 34.6573 16.0417 35.0494 16.0417 35.4583C16.0417 35.8672 16.2107 36.2593 16.5115 36.5484C16.8124 36.8376 17.2204 37 17.6458 37ZM40.1042 23.125H41.7083C42.1338 23.125 42.5418 22.9626 42.8427 22.6734C43.1435 22.3843 43.3125 21.9922 43.3125 21.5833V18.5C43.3125 18.0911 43.1435 17.699 42.8427 17.4099C42.5418 17.1207 42.1338 16.9583 41.7083 16.9583C41.2829 16.9583 40.8749 17.1207 40.574 17.4099C40.2732 17.699 40.1042 18.0911 40.1042 18.5V20.0416H36.8958C36.4704 20.0416 36.0624 20.2041 35.7615 20.4932C35.4607 20.7823 35.2917 21.1744 35.2917 21.5833C35.2917 21.9922 35.4607 22.3843 35.7615 22.6734C36.0624 22.9626 36.4704 23.125 36.8958 23.125C36.8958 23.5339 37.0648 23.926 37.3657 24.2151C37.6665 24.5042 38.0745 24.6666 38.5 24.6666C38.9255 24.6666 39.3335 24.5042 39.6343 24.2151C39.9352 23.926 40.1042 23.5339 40.1042 23.125ZM43.3125 46.25H41.7083V43.1666C41.7083 42.7578 41.5393 42.3656 41.2385 42.0765C40.9376 41.7874 40.5296 41.625 40.1042 41.625C39.6787 41.625 39.2707 41.7874 38.9698 42.0765C38.669 42.3656 38.5 42.7578 38.5 43.1666V47.7916C38.5 48.2005 38.669 48.5927 38.9698 48.8818C39.2707 49.1709 39.6787 49.3333 40.1042 49.3333H43.3125C43.738 49.3333 44.146 49.1709 44.4468 48.8818C44.7477 48.5927 44.9167 48.2005 44.9167 47.7916C44.9167 47.3828 44.7477 46.9906 44.4468 46.7015C44.146 46.4124 43.738 46.25 43.3125 46.25ZM32.0833 43.1666V47.7916C32.0833 48.2005 32.2523 48.5927 32.5532 48.8818C32.854 49.1709 33.262 49.3333 33.6875 49.3333C34.113 49.3333 34.521 49.1709 34.8218 48.8818C35.1227 48.5927 35.2917 48.2005 35.2917 47.7916V43.1666C35.2917 42.7578 35.1227 42.3656 34.8218 42.0765C34.521 41.7874 34.113 41.625 33.6875 41.625C33.262 41.625 32.854 41.7874 32.5532 42.0765C32.2523 42.3656 32.0833 42.7578 32.0833 43.1666ZM27.2708 44.7083V47.7916C27.2708 48.2005 27.4398 48.5927 27.7407 48.8818C28.0415 49.1709 28.4495 49.3333 28.875 49.3333C29.3005 49.3333 29.7085 49.1709 30.0093 48.8818C30.3102 48.5927 30.4792 48.2005 30.4792 47.7916V44.7083C30.4792 44.2994 30.3102 43.9073 30.0093 43.6182C29.7085 43.3291 29.3005 43.1666 28.875 43.1666C28.4495 43.1666 28.0415 43.3291 27.7407 43.6182C27.4398 43.9073 27.2708 44.2994 27.2708 44.7083ZM20.8542 43.1666V46.25H19.25V43.1666C19.25 42.7578 19.081 42.3656 18.7802 42.0765C18.4793 41.7874 18.0713 41.625 17.6458 41.625C17.2204 41.625 16.8124 41.7874 16.5115 42.0765C16.2107 42.3656 16.0417 42.7578 16.0417 43.1666V47.7916C16.0417 48.2005 16.2107 48.5927 16.5115 48.8818C16.8124 49.1709 17.2204 49.3333 17.6458 49.3333H22.4583C22.8838 49.3333 23.2918 49.1709 23.5927 48.8818C23.8935 48.5927 24.0625 48.2005 24.0625 47.7916V43.1666C24.0625 42.7578 23.8935 42.3656 23.5927 42.0765C23.2918 41.7874 22.8838 41.625 22.4583 41.625C22.0329 41.625 21.6249 41.7874 21.324 42.0765C21.0232 42.3656 20.8542 42.7578 20.8542 43.1666Z" fill="black"/>
</g>
<defs>
<clipPath id="clip0_7_229">
<rect width="77" height="74" fill="white"/>
</clipPath>
</defs>
</svg>
