<svg width="124" height="122" viewBox="0 0 124 122" fill="none" xmlns="http://www.w3.org/2000/svg">
<path d="M72.9292 24.3488C72.4595 23.6958 71.9776 23.0147 71.4944 22.3236C68.4897 18.0262 62.5138 17.2214 59.857 21.7381C58.1423 24.6532 53.7486 26.5276 50.8001 24.8657L49.8411 24.3252C44.7403 21.4502 38.3634 24.907 37.8317 30.7344C37.4693 34.7062 34.2913 37.9037 30.314 38.2158L29.9943 38.2409C24.044 38.7079 20.6206 45.2201 23.6089 50.3878C25.5726 53.7838 24.8272 58.096 21.8378 60.6328L21.4262 60.9822C17.1185 64.6378 17.957 71.5085 23.0183 74.0282L23.9278 74.481C27.1315 76.0759 28.5489 79.8818 27.1674 83.1803C25.0821 88.1595 29.3678 93.4652 34.6769 92.477L35.3203 92.3572C38.3706 91.7895 41.44 93.2561 42.9154 95.9863L45.0759 99.9845C47.6708 104.787 54.1719 105.711 57.9972 101.822C60.782 98.9902 65.2102 98.594 68.4574 100.886L71.0929 102.746C75.4363 105.811 81.5025 103.604 82.8551 98.467L83.1582 97.3158C84.1208 93.6595 87.9867 91.5915 91.5656 92.8184C96.754 94.5971 101.68 89.5629 99.7872 84.4164L98.3782 80.5855C97.2048 77.3949 98.6844 73.8406 101.775 72.4266L102.887 71.9178C106.933 70.0665 107.467 64.5356 103.851 61.9388C101.394 60.1746 100.704 56.82 102.267 54.2327L104.039 51.2981C106.443 47.3167 104.019 42.1687 99.4164 41.4804C96.2704 41.0099 93.9214 38.339 93.8578 35.1598L93.8194 33.2408C93.6998 27.2594 87.317 23.4976 82.027 26.2908C78.8535 27.9664 75.0258 27.2636 72.9292 24.3488Z" fill="#FAC96A" stroke="#3F3D3D" stroke-width="3"/>
<path d="M56.2629 33.6766C72.5215 30.2834 88.1979 40.0624 91.4032 55.3292C94.6084 70.5959 84.1822 85.8225 67.9237 89.2157C51.6652 92.6087 35.9898 82.8295 32.7844 67.5629C29.579 52.2962 40.0045 37.0699 56.2629 33.6766Z" fill="#FAECBC" stroke="#3F3D3D" stroke-width="3"/>
<path d="M60.0344 73.7306C62.6895 77.5654 69.5626 76.3765 70.6496 71.6053" stroke="#3F3D3D" stroke-width="3" stroke-linecap="round"/>
<path d="M69.804 68.8788C69.7571 71.1325 71.2799 72.7943 73.734 71.6223" stroke="#3F3D3D" stroke-width="3" stroke-linecap="round"/>
<path fill-rule="evenodd" clip-rule="evenodd" d="M76.9317 45.9219C75.5358 43.9216 72.7813 43.429 70.7793 44.8217C68.7773 46.2144 68.286 48.965 69.6819 50.9653C69.9281 51.3181 70.2167 51.8012 70.5149 52.3896C78.943 53.8443 76.9345 57.1672 75.8657 57.0645L72.0243 56.6953C72.431 58.6467 72.7765 61.4501 72.3425 63.6387C71.8684 66.0293 73.4248 68.3525 75.8189 68.8276C78.213 69.3028 80.5381 67.7499 81.0122 65.3593C82.7113 56.7917 79.0465 48.9524 76.9317 45.9219Z" fill="#3F3D3D"/>
<path fill-rule="evenodd" clip-rule="evenodd" d="M52.1076 51.8974C50.7117 49.8971 47.9571 49.4045 45.9552 50.7972C43.9532 52.1899 43.4619 54.9405 44.8578 56.9408C45.104 57.2936 45.3926 57.7767 45.6908 58.3651C54.1188 59.8198 52.1103 63.1427 51.0415 63.04L47.2002 62.6708C47.6068 64.6222 47.9523 67.4256 47.5183 69.6142C47.0442 72.0048 48.6006 74.328 50.9947 74.8031C53.3888 75.2783 55.714 73.7254 56.1881 71.3348C57.8872 62.7672 54.2223 54.9279 52.1076 51.8974Z" fill="#3F3D3D"/>
</svg>
